<svg xmlns="http://www.w3.org/2000/svg" xmlns:xlink="http://www.w3.org/1999/xlink" version="1.1" x="0px" y="0px" viewBox="0 0 100 125" style="enable-background:new 0 0 100 100;" xml:space="preserve"><style type="text/css">
	.st0{fill:#010101;}
</style><g><g><g><g><path class="st0" d="M28.9,77.1l2.8-10.8c0.1-0.4,0-0.8-0.3-1.1c-4.6-5.1-6.8-11.8-6.2-18.7c1-12,10.8-21.8,22.8-22.8l0,0      c7.3-0.6,14.5,2,19.6,7.2c5.2,5.1,7.8,12.3,7.3,19.6C74,62.6,64.1,72.5,52,73.4c-3.9,0.3-7.8-0.3-11.4-1.8      c-0.4-0.2-0.9-0.1-1.3,0.1L28.9,77.1z M48.1,25.8c-11,0.9-20.1,9.9-21,20.9c-0.5,6.4,1.5,12.5,5.7,17.2c0.7,0.8,1,1.9,0.7,2.9      l-1.7,6.5l6.4-3.3c0.9-0.5,2-0.5,3-0.2c3.3,1.4,6.9,1.9,10.5,1.6c11.1-0.9,20.2-9.9,21-21.1c0.5-6.7-1.9-13.3-6.7-18      C61.4,27.7,54.8,25.2,48.1,25.8L48.1,25.8z"/></g></g></g><path class="st0" d="M62.2,42.9c-0.4-0.2-0.9-0.2-1.3,0l-3.2,1.8v-1.5c0-1.1-0.9-1.9-1.9-1.9H39.4c-1.1,0-1.9,0.9-1.9,1.9v12.9   c0,1.1,0.9,1.9,1.9,1.9h16.4c1.1,0,1.9-0.8,1.9-1.9v-2l3.1,1.8c0.3,0.1,0.5,0.2,0.7,0.2s0.4,0,0.7-0.2c0.5-0.2,0.7-0.6,0.7-1.1V44   C62.9,43.6,62.6,43.1,62.2,42.9z M55.7,56H39.6V43.4h16.1v3.2v5.6V56z M60.8,53.6l-3.1-1.8V47l3.1-1.8V53.6z"/></g></svg>