<?xml version="1.0" encoding="UTF-8" standalone="no"?>
<svg width="160px" height="160px" viewBox="0 0 160 160" version="1.1" xmlns="http://www.w3.org/2000/svg" xmlns:xlink="http://www.w3.org/1999/xlink" xmlns:sketch="http://www.bohemiancoding.com/sketch/ns">
    <!-- Generator: Sketch 3.3.3 (12081) - http://www.bohemiancoding.com/sketch -->
    <title>Imported Layers</title>
    <desc>Created with Sketch.</desc>
    <defs></defs>
    <g id="Final" stroke="none" stroke-width="1" fill="none" fill-rule="evenodd" sketch:type="MSPage">
        <g id="Incentive-Version" sketch:type="MSArtboardGroup" transform="translate(-964.000000, -681.000000)" fill="#8C68A6">
            <g id="Group" sketch:type="MSLayerGroup" transform="translate(0.000000, 561.000000)">
                <g transform="translate(77.000000, 120.000000)" id="Imported-Layers" sketch:type="MSShapeGroup">
                    <path d="M967.006644,160 C922.864131,160 887,124.138847 887,80.0132868 C887,35.8744395 922.864131,0 967.006644,0 C1011.14916,0 1047,35.8744395 1047,80.0132868 C1047,124.138847 1011.14916,160 967.006644,160 L967.006644,160 Z M977.039033,95.7714665 C976.892866,95.3064275 976.560668,94.8281016 976.082302,94.5092177 C975.285026,94.0308919 974.328295,93.8714499 973.052653,93.8714499 C971.630845,93.8714499 970.341915,94.1903338 969.717382,94.1903338 C966.049913,94.3497758 962.541899,95.7714665 959.83116,98.1763827 C957.758243,92.9015114 956.482601,86.5371201 956.482601,80.0132868 C956.482601,73.4761667 957.758243,67.0984886 959.83116,61.850191 C962.541899,64.3879754 966.049913,65.8362398 969.717382,65.8362398 C970.195748,65.982395 971.471389,66.1418369 972.733743,66.1418369 C974.022673,66.1418369 974.966116,65.982395 975.763392,65.663511 C976.241757,65.3446271 976.560668,64.8663013 976.720123,64.2285335 L981.663234,31.2506228 C981.822689,30.4401262 981.344324,29.6562033 980.706503,29.3240326 C978.633585,28.3673808 976.401213,27.729613 974.022673,27.729613 L970.036293,27.729613 C967.790632,27.729613 965.571547,28.2079389 963.658085,29.3240326 C963.49863,29.3240326 963.339174,29.3240326 963.179719,29.4834745 C962.541899,29.8156452 962.063533,30.1345291 961.585167,30.4401262 L960.787891,30.9184521 C948.669297,38.4122239 941.18819,58.0102973 941.18819,80.0132868 C941.18819,101.684106 948.828752,120.963295 960.468981,128.775951 C961.266257,129.413719 962.222988,130.0382 963.020264,130.529812 C963.179719,130.675967 963.339174,130.675967 963.49863,130.675967 C965.412092,131.792061 967.644465,132.270387 970.036293,132.270387 L974.022673,132.270387 C976.401213,132.270387 978.633585,131.792061 980.706503,130.675967 C981.344324,130.357084 981.822689,129.559874 981.663234,128.775951 L977.039033,95.7714665 L977.039033,95.7714665 Z"></path>
                </g>
            </g>
        </g>
    </g>
</svg>